<svg width="13" height="18" viewBox="0 0 13 18" fill="none" xmlns="http://www.w3.org/2000/svg">
<g clip-path="url(#clip0_1_1810)">
<path d="M10.2041 0.909997C10.4681 0.909997 10.7151 0.974997 10.9511 1.093C11.0104 1.12203 11.0666 1.15687 11.1191 1.197C11.2051 1.262 11.2911 1.327 11.3641 1.405C11.5171 1.572 11.6181 1.745 11.7021 1.953C11.7731 2.128 11.8021 2.324 11.8021 2.513V9.655C11.8021 9.764 11.8071 9.876 11.7951 9.985C11.7741 10.2047 11.7117 10.4185 11.6111 10.615C11.5611 10.711 11.4951 10.795 11.4281 10.88C11.3882 10.9328 11.3433 10.9817 11.2941 11.026C11.0064 11.2885 10.6343 11.4396 10.2451 11.452C10.2351 11.452 10.2251 11.455 10.2161 11.455H2.85606C2.53843 11.451 2.22844 11.357 1.96206 11.184C1.87369 11.1232 1.79071 11.055 1.71406 10.98C1.59079 10.8566 1.49025 10.7123 1.41706 10.554C1.32197 10.353 1.26791 10.1351 1.25806 9.913V2.473L1.26206 2.398C1.27949 2.18005 1.33784 1.96733 1.43406 1.771C1.51602 1.61762 1.62052 1.47739 1.74406 1.355C2.03297 1.07863 2.41438 0.919649 2.81406 0.908997L10.2041 0.909997ZM10.2091 1.988H3.01506C2.93606 1.988 2.85706 1.988 2.77806 1.993C2.73506 2.002 2.69306 2.013 2.65206 2.027C2.6125 2.04717 2.57411 2.06954 2.53706 2.094C2.50406 2.124 2.47206 2.156 2.44206 2.189C2.41814 2.22585 2.39611 2.2639 2.37606 2.303C2.36195 2.34496 2.35026 2.38769 2.34106 2.431C2.33906 2.455 2.33606 2.478 2.33606 2.501L2.33706 9.814L2.34106 9.932C2.35106 9.975 2.36106 10.017 2.37606 10.058C2.39606 10.098 2.41806 10.136 2.44306 10.173C2.47306 10.207 2.50406 10.238 2.53806 10.268C2.57406 10.292 2.61206 10.314 2.65106 10.334C2.69306 10.348 2.73606 10.36 2.78006 10.369L2.85006 10.374H10.2141L10.2781 10.369C10.3218 10.3601 10.3649 10.3484 10.4071 10.334C10.4465 10.3142 10.4846 10.2918 10.5211 10.267C10.5551 10.237 10.5871 10.206 10.6171 10.172C10.6412 10.1356 10.6632 10.0979 10.6831 10.059C10.6971 10.017 10.7091 9.974 10.7181 9.93C10.7191 9.907 10.7221 9.884 10.7221 9.86V2.548L10.7171 2.43C10.7082 2.38704 10.6968 2.34464 10.6831 2.303C10.6633 2.26356 10.6409 2.22548 10.6161 2.189C10.5864 2.15536 10.5547 2.12363 10.5211 2.094C10.4848 2.0694 10.447 2.04702 10.4081 2.027C10.3654 2.01288 10.322 2.0012 10.2781 1.992C10.2561 1.991 10.2331 1.988 10.2091 1.988ZM8.75006 3.418L8.83606 3.423C8.94766 3.44453 9.05073 3.49763 9.13306 3.576C9.17906 3.618 9.21506 3.676 9.24206 3.737C9.27306 3.805 9.29206 3.88 9.29206 3.957V6.447C9.2893 6.58996 9.2329 6.72667 9.13406 6.83C9.03166 6.92952 8.89485 6.98575 8.75206 6.987C8.60908 6.9867 8.47192 6.93033 8.37006 6.83C8.27062 6.72705 8.21413 6.59011 8.21206 6.447V5.26L7.47606 5.996L6.19006 7.283L5.13206 8.341L4.68806 8.785C4.58548 8.88437 4.44886 8.94087 4.30606 8.943C4.16294 8.94243 4.02576 8.88569 3.92406 8.785C3.82345 8.68323 3.76673 8.5461 3.76606 8.403C3.76606 8.263 3.82606 8.119 3.92406 8.021L3.93206 8.013C4.10906 7.832 4.29206 7.653 4.47106 7.474L7.44706 4.498H6.26306C6.12011 4.49659 5.98323 4.43998 5.88106 4.34C5.80596 4.26429 5.7549 4.16808 5.73432 4.06345C5.71373 3.95882 5.72452 3.85043 5.76534 3.75192C5.80615 3.6534 5.87517 3.56914 5.96373 3.50973C6.05228 3.45032 6.15642 3.41841 6.26306 3.418H8.75006Z" fill="#C3B3C5"/>
</g>
<defs>
<clipPath id="clip0_1_1810">
<rect width="12" height="18" fill="white" transform="translate(0.530029)"/>
</clipPath>
</defs>
</svg>
