<svg width="19" height="15" viewBox="0 0 19 15" fill="none" xmlns="http://www.w3.org/2000/svg">
<path d="M9.44 9.94739C8.20625 9.94739 7.20238 8.93789 7.20238 7.69701C7.20238 6.45576 8.20625 5.44664 9.44 5.44664C10.6738 5.44664 11.6776 6.45614 11.6776 7.69664C11.6776 8.93789 10.6738 9.94739 9.44 9.94739ZM9.44 3.94476C7.38313 3.94476 5.70913 5.62814 5.70913 7.69701C5.70913 9.76589 7.38313 11.4493 9.44 11.4493C11.4969 11.4493 13.1709 9.76551 13.1709 7.69701C13.1709 5.62814 11.4969 3.94476 9.44 3.94476ZM9.43963 12.944C4.69513 12.944 2.53775 8.80889 2.04425 7.70001C2.5385 6.58851 4.69588 2.45001 9.44 2.45001C14.1838 2.45001 16.3415 6.58776 16.8354 7.70001C16.3408 8.81114 14.1834 12.944 9.43963 12.944ZM18.3418 7.43676C18.2431 7.17126 15.8495 0.950012 9.44 0.950012C3.0305 0.950012 0.636877 7.17126 0.538252 7.43676L0.440002 7.70001L0.538252 7.96326C0.636877 8.22764 3.03088 14.4433 9.43963 14.4433C15.8488 14.4433 18.2431 8.22764 18.3418 7.96326L18.44 7.70001L18.3418 7.43639V7.43676Z" fill="#0072CE"/>
</svg>
